<svg xmlns="http://www.w3.org/2000/svg" width="187.076" height="310" viewBox="0 0 187.076 310">
  <g id="Group_6" data-name="Group 6" transform="translate(280 615)">
    <text id="Clip_Tok" data-name="Clip Tok" transform="translate(-268 -319)" font-size="40" font-family="Poppins-Bold, Poppins" font-weight="700"><tspan x="0" y="0">Clip Tok</tspan></text>
    <g id="Group_2" data-name="Group 2" transform="translate(-413 -638)">
      <path id="Icon_material-headset-mic" data-name="Icon material-headset-mic" d="M88.623,1.5A84.13,84.13,0,0,0,4.5,85.623v65.429a28,28,0,0,0,28.041,28.041H60.582V104.317H23.194V85.623a65.429,65.429,0,0,1,130.858,0v18.694H116.664v74.776h37.388v9.347H88.623v18.694h56.082a28,28,0,0,0,28.041-28.041V85.623A84.13,84.13,0,0,0,88.623,1.5Z" transform="translate(128.5 21.5)" fill="#6dbcdb"/>
      <path id="Icon_material-headset-mic-2" data-name="Icon material-headset-mic" d="M88.623,1.5A84.13,84.13,0,0,0,4.5,85.623v65.429a28,28,0,0,0,28.041,28.041H60.582V104.317H23.194V85.623a65.429,65.429,0,0,1,130.858,0v18.694H116.664v74.776h37.388v9.347H88.623v18.694h56.082a28,28,0,0,0,28.041-28.041V85.623A84.13,84.13,0,0,0,88.623,1.5Z" transform="translate(147.33 42.347)" fill="#fc4349"/>
      <path id="Icon_material-headset-mic-3" data-name="Icon material-headset-mic" d="M88.623,1.5A84.13,84.13,0,0,0,4.5,85.623v65.429a28,28,0,0,0,28.041,28.041H60.582V104.317H23.194V85.623a65.429,65.429,0,0,1,130.858,0v18.694H116.664v74.776h37.388v9.347H88.623v18.694h56.082a28,28,0,0,0,28.041-28.041V85.623A84.13,84.13,0,0,0,88.623,1.5Z" transform="translate(138.587 30.915)"/>
    </g>
  </g>
</svg>
